<svg xmlns="http://www.w3.org/2000/svg" viewBox="0 0 383.58 383.58"><defs><style>.cls-1{fill:#515151;}.cls-2{opacity:0;}.cls-3{fill:#64deff;}</style></defs><title>ic_alram</title><g id="Layer_2" data-name="Layer 2"><g id="Layer_1-2" data-name="Layer 1"><path class="cls-1" d="M192.52,339.1c-75.73,0-137.35-61.62-137.35-137.35S116.79,64.4,192.52,64.4,329.87,126,329.87,201.75,268.26,339.1,192.52,339.1Zm0-249.7A112.35,112.35,0,1,0,304.87,201.75,112.48,112.48,0,0,0,192.52,89.4Z"/><path class="cls-1" d="M242.73,264.45a12.46,12.46,0,0,1-8.84-3.66l-50.21-50.2a12.52,12.52,0,0,1-3.66-8.84V126.2a12.5,12.5,0,0,1,25,0v70.37l46.54,46.54a12.5,12.5,0,0,1-8.83,21.34Z"/><path class="cls-1" d="M328.11,118.48a12.46,12.46,0,0,1-8.84-3.66l-42-42A12.5,12.5,0,0,1,295,55.14l42,42a12.5,12.5,0,0,1-8.84,21.34Z"/><path class="cls-1" d="M55.48,118.48a12.5,12.5,0,0,1-8.84-21.34l42-42a12.5,12.5,0,0,1,17.68,17.68l-42,42A12.46,12.46,0,0,1,55.48,118.48Z"/><g class="cls-2"><path class="cls-3" d="M383.58,383.58H0V0H383.58ZM.25,383.33H383.33V.25H.25Z"/></g></g></g></svg>