<svg id="Apps" xmlns="http://www.w3.org/2000/svg" viewBox="0 0 80 80">
  <defs>
    <style>
      .cls-1 {
        fill: #fff;
      }
    </style>
  </defs>
  <g id="Layer_1" data-name="Layer 1">
    <circle id="Ellipse_351" data-name="Ellipse 351" class="cls-1" cx="38.431" cy="38.431" r="38.431" transform="translate(1.569 1.569)"/>
    <path id="Path_1703" data-name="Path 1703" d="M40,80A40,40,0,1,1,80,40,40.047,40.047,0,0,1,40,80ZM40,3.137A36.863,36.863,0,1,0,76.863,40,36.9,36.9,0,0,0,40,3.137Z"/>
    <path id="Path_1704" data-name="Path 1704" d="M112.994,127.4l-12.256-12.256a1.522,1.522,0,0,1,0-2.154l12.256-12.256a1.522,1.522,0,0,1,2.154,0L127.4,112.994a1.522,1.522,0,0,1,0,2.154L115.148,127.4a1.522,1.522,0,0,1-2.154,0Zm1.077-16.915a3.582,3.582,0,1,0,3.582,3.582A3.582,3.582,0,0,0,114.071,110.489Z" transform="translate(-74.071 -74.071)"/>
  </g>
</svg>
